# xmcd
#
# Track frame offsets: 
#        150
#        14522
#        28320
#        43754
#        57840
#        74439
#        86560
#        99945
#        113590
#        127575
#        137772
#        151480
#        163221
#        176967
#        194100
#        208811
#        222991
#        236545
#        253017
#        267419
#        283263
#        297352
#        309926
#        324464
#        337843
#
# Disc length: 4696 seconds
#
# Revision: 0
# Processed by: cddbd v1.5.2PL0 Copyright (c) Steve Scherf et al.
# Submitted via: ExactAudioCopy v0.99pb5
#
DISCID=80125619
DTITLE=Various Artist - Life Is A Song - The Songs of Fred Ahlert
DYEAR=1999
DGENRE=Jazz
TTITLE0=Ruth Etting - Life is a Song, Let's Sing it Together
TTITLE1=Frankie Trumbauer - There's a Candle in Caroline
TTITLE2=Irving Aaronson - Evening Star, Help Me Find My Man
TTITLE3=George Olsen - I'll Never Ask For More
TTITLE4=Ruth Etting - Mean To Me
TTITLE5="Whispering" Jack Smith - To Be In Love, Espesh'lly With You
TTITLE6=Lawrence Gray - The Whole Darned Thing's For You
TTITLE7=Ambrose - The Free and Easy
TTITLE8=Bing Crosby - Where the Blue of the Night Meets the Gold of th
TTITLE8=e Day
TTITLE9=Maurice Chevalier - Walkin' My Baby Back Home
TTITLE10=Rudy Vallee - Why Dance?
TTITLE11=Eddie and Rex - Ain't That The Way It Goes?
TTITLE12=Bing Crosby - I'll Follow You
TTITLE13=Louis Armstrong - Love, You Funny Thing
TTITLE14=Gene Austin - Just a Little Home for the Old Folks
TTITLE15=Anson Weeks - And I Still Do
TTITLE16=Bing Crosby - The Moon Was Yellow and The Night Was Young
TTITLE17=Fats Waller - I'm Gonna Sit Right Down and Write Myself A Let
TTITLE17=ter
TTITLE18=Carroll Gibbons - Sing an Old-Fashioned Song
TTITLE19=Eddy Duchin - Take My Heart
TTITLE20=Henry Hall - The Goona Goo
TTITLE21=Dick Haymes and Harry James - I'll Get By As Long As I Have You
TTITLE22=Nat King Cole - I Don't Know Why...I Just Do
TTITLE23=Al Bowlly - Keep Your Last Goodnight For Me
TTITLE24=Jean Sablon and Django Reinhrdt - Cette Chanson Pur Vous (Life 
TTITLE24=is a Song)
EXTD=
EXTT0=
EXTT1=
EXTT2=
EXTT3=
EXTT4=
EXTT5=
EXTT6=
EXTT7=
EXTT8=
EXTT9=
EXTT10=
EXTT11=
EXTT12=
EXTT13=
EXTT14=
EXTT15=
EXTT16=
EXTT17=
EXTT18=
EXTT19=
EXTT20=
EXTT21=
EXTT22=
EXTT23=
EXTT24=
PLAYORDER=
